<?xml version="1.0" encoding="UTF-8"?>
<svg width="36px" height="36px" viewBox="0 0 36 36" version="1.1" xmlns="http://www.w3.org/2000/svg">
    <!-- Generator: Sketch 52.1 (67048) - http://www.bohemiancoding.com/sketch -->
    <title>标记 copy 2</title>
    <desc>Created with Sketch.</desc>
    <g id="Page-1" stroke="none" stroke-width="1" fill="none" fill-rule="evenodd">
        <g id="景区管理-景区列表-景区资料" transform="translate(-1552.000000, -614.000000)">
            <g id="标记-copy-2" transform="translate(1552.000000, 614.000000)">
                <path d="M27.8218557,36 L8.18165779,36 C3.68121861,36 0,32.3191406 0,27.8191406 L0,8.184375 C0,3.68085938 3.68121861,0 8.18165779,0 L27.8183397,0 C32.3187789,0 35.9999975,3.68085938 35.9999975,8.18085937 L35.9999975,27.815625 C36.0035135,32.3191406 32.3222948,36 27.8218557,36 Z" id="路径" fill="#DEF2DB"></path>
                <path d="M26.4135933,12.3086666 L12.3404631,6.08066379 C12.0425824,5.94853299 11.703137,5.98067292 11.4329661,6.16279915 C11.1627953,6.34492538 11,6.6556113 11,6.99129494 L11,28.0072335 C11,28.5536122 11.4295024,29 11.9629166,29 C12.4963309,29 12.9258332,28.5571833 12.9258332,28.0072335 L12.9258332,21.4364048 L26.4863316,14.0942179 C26.8153858,13.9156628 27.0162821,13.5585525 26.9989634,13.1764446 C26.9781811,12.7979077 26.7530387,12.458653 26.4135933,12.3086666 Z" id="路径" fill="#4FB969"></path>
            </g>
        </g>
    </g>
</svg>