<?xml version="1.0" encoding="UTF-8"?>
<svg width="31px" height="36px" viewBox="0 0 31 36" version="1.1" xmlns="http://www.w3.org/2000/svg">
    <!-- Generator: Sketch 52.1 (67048) - http://www.bohemiancoding.com/sketch -->
    <title>Group 3 Copy 10</title>
    <desc>Created with Sketch.</desc>
    <g id="Page-1" stroke="none" stroke-width="1" fill="none" fill-rule="evenodd">
        <g id="景区管理-景区列表-景区资料" transform="translate(-1552.000000, -370.000000)">
            <g id="Group-3-Copy-10" transform="translate(1552.000000, 370.000000)">
                <ellipse id="Oval" fill-opacity="0.2" fill="#4FB969" fill-rule="nonzero" cx="15.5" cy="35" rx="7.5" ry="1"></ellipse>
                <path d="M15.5,0 C6.93860762,0 0,6.82506004 0,15.2604911 C0,19.4782249 1.7346612,23.2906179 4.54369321,26.0513164 L15.5,35 L26.4563068,26.0513164 C29.3660611,23.1810664 31,19.3029424 31,15.2604911 C30.9888458,6.82502365 24.050201,4.65494596e-15 15.5,0 Z" id="Path" fill="#4FB969" fill-rule="nonzero"></path>
                <path d="M22.1301483,22.120603 L20.7067545,22.120603 L20.7067545,8.16750419 C20.7067545,7.51256282 20.2322899,7 19.6260297,7 L10.3739703,7 C9.7940692,7 9.29324547,7.51256282 9.29324547,8.16750419 L9.29324547,22.120603 L7.89621087,22.120603 C7.39538715,22.120603 7,22.4907873 7,22.9463987 L7,23.1742043 C7,23.6298157 7.39538715,24 7.89621087,24 L22.1037891,24 C22.6046129,24 23,23.6298158 23,23.1742043 L23,22.9463987 C23,22.4907873 22.6046129,22.120603 22.1301483,22.120603 Z M11.7182867,9.56281407 L18.3080725,9.56281407 L18.3080725,18.760469 L11.7182867,21.9497488 L11.7182867,9.56281407 Z" id="形状" fill="#FFFFFF" fill-rule="nonzero"></path>
                <path d="M14.35,16 C14.15,16 14,15.8928571 14,15.75 L14,15.25 C14,15.1071429 14.15,15 14.35,15 L15.65,15 C15.85,15 16,15.1071429 16,15.25 C16,15.3928571 15.85,15.5 15.65,15.5 L14.7,15.5 L14.7,15.75 C14.7,15.8928571 14.55,16 14.35,16 Z" id="路径" fill="#FFFFFF"></path>
            </g>
        </g>
    </g>
</svg>