<?xml version="1.0" encoding="UTF-8"?>
<svg width="28px" height="28px" viewBox="0 0 28 28" version="1.1" xmlns="http://www.w3.org/2000/svg">
    <!-- Generator: Sketch 52.1 (67048) - http://www.bohemiancoding.com/sketch -->
    <title>add copy</title>
    <desc>Created with Sketch.</desc>
    <g id="Page-1" stroke="none" stroke-width="1" fill="none" fill-rule="evenodd">
        <g id="景区管理-景区列表-景区资料-景区图册" transform="translate(-818.000000, -328.000000)" fill="#CCCCCC">
            <g id="add-2" transform="translate(818.000000, 328.000000)">
                <path d="M12.25,12.2757235 L12.25,1.77572347 C12.25,0.80922516 13.0335017,0.0257234727 14,0.0257234727 C14.9664983,0.0257234727 15.75,0.80922516 15.75,1.77572347 L15.75,12.2757235 L26.25,12.2757235 C27.2164983,12.2757235 28,13.0592252 28,14.0257235 C28,14.9922218 27.2164983,15.7757235 26.25,15.7757235 L15.75,15.7757235 L15.75,26.2757235 C15.75,27.2422218 14.9664983,28.0257235 14,28.0257235 C13.0335017,28.0257235 12.25,27.2422218 12.25,26.2757235 L12.25,15.7757235 L1.75,15.7757235 C0.783501688,15.7757235 1.18361906e-16,14.9922218 0,14.0257235 C-1.18361906e-16,13.0592252 0.783501688,12.2757235 1.75,12.2757235 L12.25,12.2757235 Z" id="add"></path>
            </g>
        </g>
    </g>
</svg>