<?xml version="1.0" encoding="UTF-8"?>
<svg width="18px" height="19px" viewBox="0 0 18 19" version="1.1" xmlns="http://www.w3.org/2000/svg">
    <!-- Generator: Sketch 52.1 (67048) - http://www.bohemiancoding.com/sketch -->
    <title>checkbox_pre</title>
    <desc>Created with Sketch.</desc>
    <g id="Page-1" stroke="none" stroke-width="1" fill="none" fill-rule="evenodd">
        <g id="景区管理-景区列表-授权系统" transform="translate(-503.000000, -533.000000)" fill="#CCCCCC" fill-rule="nonzero">
            <g id="checkbox_pre-2" transform="translate(503.000000, 533.980365)">
                <path d="M16.1122865,5.32907052e-15 L1.86809865,5.32907052e-15 C0.836359723,5.32907052e-15 -5.5067062e-14,0.836380317 -5.5067062e-14,1.86807805 L-5.5067062e-14,16.1122659 C-5.5067062e-14,17.1439842 0.836359723,17.9803645 1.86809865,17.9803645 L16.1122865,17.9803645 C17.1440254,17.9803645 17.9803851,17.1439842 17.9803851,16.1122659 L17.9803851,1.86807805 C17.9803851,0.836380317 17.1440254,5.32907052e-15 16.1122865,5.32907052e-15 Z M13.8395694,6.56895886 L7.75871871,12.6497889 C7.63875625,12.7697514 7.4306703,12.7560973 7.29386161,12.6193092 C7.29386161,12.6193092 6.88615401,12.2116016 6.88611282,12.2115604 L4.16167787,9.48712545 C4.02488978,9.35033736 4.02488978,9.12855612 4.16167787,8.99176803 L4.90470371,8.24872159 C5.04149181,8.1119129 5.26327305,8.1119129 5.40006114,8.24872159 L7.54155062,10.3902317 L12.6011861,5.33057559 C12.721128,5.21063373 12.9292551,5.22428782 13.0660226,5.36107592 L13.8090485,6.10408116 C13.9458777,6.24091044 13.9595112,6.4489964 13.8395694,6.56895886 Z" id="checkbox_pre"></path>
            </g>
        </g>
    </g>
</svg>