<?xml version="1.0" encoding="UTF-8"?>
<svg width="15px" height="15px" viewBox="0 0 15 15" version="1.1" xmlns="http://www.w3.org/2000/svg">
    <!-- Generator: Sketch 52.1 (67048) - http://www.bohemiancoding.com/sketch -->
    <title>rili 2</title>
    <desc>Created with Sketch.</desc>
    <g id="Page-1" stroke="none" stroke-width="1" fill="none" fill-rule="evenodd">
        <g id="景区管理-景区列表-新增景区" transform="translate(-1180.000000, -507.000000)" fill="#4FB969" fill-rule="nonzero">
            <g id="rili-2" transform="translate(1180.000000, 507.000000)">
                <path d="M13.2337764,15 L0.881939015,15 C0.394857547,15 1.79412041e-13,14.6051425 1.79412041e-13,14.118061 L1.79412041e-13,2.64628616 C1.79412041e-13,2.158405 0.394057858,1.76434715 0.881939015,1.76434715 L2.64581704,1.76434715 L2.64581704,0.882408131 C2.64581704,0.395326663 3.04067459,0.000469116497 3.52775606,0.000469116497 C4.01483753,0.000469116497 4.40969507,0.395326663 4.40969507,0.882408131 L4.40969507,1.76434715 L9.70414386,1.76434715 L9.70414386,0.882408131 C9.70414386,0.395067577 10.0992114,8.96183375e-17 10.586552,0 C11.0738925,-8.95166141e-17 11.4689601,0.395067577 11.4689601,0.882408131 L11.4689601,1.76434715 L13.2337764,1.76434715 C13.7216575,1.76434715 14.1157154,2.158405 14.1157154,2.64628616 L14.1157154,14.1161845 C14.1157154,14.6040657 13.7216575,14.9981235 13.2337764,14.9981235 L13.2337764,15 Z M13.2337764,5.29397967 L0.881939015,5.29397967 L0.881939015,14.1171228 L13.2347146,14.1171228 L13.2347146,5.29397967 L13.2337764,5.29397967 Z M4.41063331,8.8236122 L2.64581704,8.8236122 L2.64581704,7.05973417 L4.40969507,7.05973417 L4.40969507,8.8236122 L4.41063331,8.8236122 Z M4.41063331,12.3532447 L2.64581704,12.3532447 L2.64581704,10.5884285 L4.40969507,10.5884285 L4.40969507,12.3523065 L4.41063331,12.3532447 Z M7.9393276,8.8236122 L6.17544957,8.8236122 L6.17544957,7.05973417 L7.9393276,7.05973417 L7.9393276,8.8236122 Z M7.9393276,12.3532447 L6.17544957,12.3532447 L6.17544957,10.5884285 L7.9393276,10.5884285 L7.9393276,12.3523065 L7.9393276,12.3532447 Z M11.4689601,8.8236122 L9.7050821,8.8236122 L9.7050821,7.05973417 L11.4689601,7.05973417 L11.4689601,8.8236122 Z M11.4689601,12.3532447 L9.7050821,12.3532447 L9.7050821,10.5884285 L11.4689601,10.5884285 L11.4689601,12.3523065 L11.4689601,12.3532447 Z" id="rili"></path>
            </g>
        </g>
    </g>
</svg>