<?xml version="1.0" encoding="UTF-8"?>
<svg width="477px" height="82px" viewBox="0 0 477 82" version="1.1" xmlns="http://www.w3.org/2000/svg" xmlns:xlink="http://www.w3.org/1999/xlink">
    <!-- Generator: Sketch 52.1 (67048) - http://www.bohemiancoding.com/sketch -->
    <title>Group 29</title>
    <desc>Created with Sketch.</desc>
    <defs>
        <path d="M9.97236715,0.14867954 L14.9156895,0.14867954 L14.9156895,5.37774312 L27.2311344,5.37774312 L27.2311344,9.69243492 L14.9156895,9.69243492 L14.9156895,23.1508444 L28.116932,23.1508444 L28.116932,25.1796068 C28.116932,26.5130723 27.2692417,27.1797951 25.5738355,27.1797951 L1.14296472,27.1797951 L1.14296472,23.1508444 L9.97236715,23.1508444 L9.97236715,0.14867954 Z M31.517252,8.63519256 L35.6604991,8.63519256 L35.6604991,22.807955 C35.6604991,23.3794402 36.0605328,23.6651786 36.8606121,23.6651786 L38.6322074,23.6651786 L38.6322074,27.0369245 L34.8032756,27.0369245 C32.6125823,27.0369245 31.517252,25.7606266 31.517252,23.2079927 L31.517252,8.63519256 Z M30.4028614,0.234401893 L30.4885838,0.177253657 L34.403238,0.177253657 L34.403238,3.14896192 L37.3463721,3.14896192 C39.4227684,3.14896192 40.4038033,4.38716131 40.2895062,6.86359725 L40.2895062,14.064275 L36.603445,14.064275 L36.603445,8.8637855 C36.603445,7.41602295 35.8414762,6.69215254 34.3175156,6.69215254 L32.003012,6.69215254 C30.9362396,6.53975648 30.4028614,5.83493529 30.4028614,4.57766781 L30.4028614,0.234401893 Z M57.1768099,1.89170073 L57.1768099,5.49203959 L49.1189087,5.49203959 L50.0904287,7.72082078 L57.3768287,5.94922547 L57.3196805,9.43526786 L51.9477463,10.8639738 C53.5479049,11.2830629 55.357581,11.3592598 57.3768287,11.0925667 L57.3768287,14.6929056 C52.0429667,15.2262918 48.7855499,14.4452737 47.6044804,12.3498279 L41.203878,14.1214232 L41.203878,10.1210467 L46.0043298,8.80663726 L44.8613651,5.49203959 L40.946711,5.49203959 L40.946711,1.89170073 L43.3469369,1.89170073 L42.7183063,0.348698365 L47.261591,0.348698365 L47.8616475,1.89170073 L57.1768099,1.89170073 Z M57.3768287,15.6072773 L57.3768287,19.3219127 L54.2336758,19.3219127 L54.2336758,22.6365103 C54.2336758,23.0936985 54.4336926,23.3222892 54.8337323,23.3222892 L57.3768287,23.3222892 L57.3768287,27.0369245 L52.7192475,27.0369245 C51.0619404,27.0369245 50.2332993,26.1416111 50.2332993,24.3509574 L50.2332993,21.5506938 C50.2332993,20.0648323 49.6618226,19.3219127 48.5188522,19.3219127 L47.2901651,19.3219127 L45.0613839,27.151221 L40.4609509,27.151221 L42.889751,19.3219127 L40.0894874,19.3219127 L40.0894874,15.6072773 L57.3768287,15.6072773 Z M85.5223349,22.9222515 C85.5032854,24.7129052 84.607972,25.6082186 82.8363678,25.6082186 L78.8074172,25.6082186 L78.8074172,21.8935833 L80.2361231,21.8935833 C80.6933112,21.8935833 80.9219019,21.6649926 80.9219019,21.2078044 L80.9219019,14.6929056 C80.9219019,13.3022915 80.1885069,12.6069949 78.7216948,12.6069949 L75.4642454,12.6069949 L75.4642454,24.8938656 C75.4642454,26.3987767 74.6927519,27.151221 73.1497418,27.151221 L70.8638124,27.151221 L70.8638124,14.807202 C70.8638124,13.34039 70.1113681,12.6069949 68.6064571,12.6069949 L65.2918594,12.6069949 L65.2918594,25.6082186 L60.6914264,25.6082186 L60.6914264,12.6069949 C60.6914264,10.168658 61.9296258,8.93045863 64.4060617,8.89235962 L70.8638124,8.89235962 L70.8638124,7.54937608 C70.8638124,6.38735614 70.0256466,5.80635488 68.34929,5.80635488 L59.6627582,5.80635488 L59.6627582,2.06314544 L70.8638124,2.06314544 L70.8638124,0.177253657 L75.4642454,0.177253657 L75.4642454,2.06314544 L86.6367255,2.06314544 L86.6367255,5.80635488 L75.4642454,5.80635488 L75.4642454,8.89235962 L81.4933843,8.89235962 C84.1603153,8.89235962 85.5032854,10.1115098 85.5223349,12.5498467 L85.5223349,22.9222515 Z M106.209996,0.748736015 L110.181799,0.748736015 L110.181799,26.5225904 L106.209996,26.5225904 L106.209996,0.748736015 Z M111.43906,0.177253657 L115.868048,0.177253657 L115.896622,24.4652539 C115.744226,26.1797095 114.90606,27.0750229 113.3821,27.151221 L111.43906,27.151221 L111.43906,0.177253657 Z M91.2657326,10.7782514 L88.9226549,10.7782514 L91.5228996,2.54890544 C91.9229393,1.15829142 92.7896789,0.415371783 94.1231444,0.320124247 L100.666617,0.320124247 C101.466697,0.320124247 102.133419,0.777305562 102.666806,1.69168191 L105.981403,10.7782514 L103.32401,10.7782514 C103.933595,11.2735386 104.200284,11.9402613 104.124086,12.7784397 L104.066937,18.3789668 C104.047888,20.2077194 103.14305,21.1220821 101.352396,21.1220821 L96.7519632,21.1220821 L96.7519632,17.5503173 L98.7521515,17.5503173 C99.2093396,17.5503173 99.4379303,17.3122021 99.4379303,16.8359644 L99.4379303,14.8357761 C99.4379303,14.0737959 98.9902736,13.6928114 98.0949468,13.6928114 L94.9517938,13.6928114 L94.9517938,22.7793809 C94.9517938,23.2556186 95.1899091,23.4937339 95.6661467,23.4937339 L105.295624,23.4937339 L105.295624,24.8367174 C105.295624,26.474975 104.466983,27.2940915 102.809676,27.2940915 L93.0373279,27.2940915 C91.2276247,27.275042 90.3227867,26.3606794 90.3227867,24.5509762 L90.2370643,13.0070326 C90.2751633,11.6926166 90.6180493,10.949697 91.2657326,10.7782514 Z M95.6089985,4.12048193 L94.2374408,8.77806315 C94.1040943,9.21620181 93.9136021,9.58766163 93.6659585,9.89245374 L100.866636,9.89245374 L98.8378738,4.12048193 L95.6089985,4.12048193 Z M126.669065,5.12057605 L123.868801,5.12057605 C124.345039,6.91122973 124.80222,7.80654314 125.240359,7.80654314 C125.678497,7.80654314 126.154728,6.91122973 126.669065,5.12057605 Z M133.126815,4.17763016 C133.260162,1.68214472 134.41264,0.45346994 136.584284,0.491568954 L145.156519,0.491568954 L145.156519,2.17744191 C145.156519,3.68235298 144.480272,4.43479722 143.127757,4.43479722 L137.441507,4.40622311 L137.470081,7.46365372 L141.527606,7.46365372 C143.6802,7.50175274 144.756481,8.65423063 144.756481,10.921122 L144.756481,27.151221 L140.356067,27.151221 L140.356067,12.8355879 C140.356067,11.7307165 139.822689,11.178289 138.755917,11.178289 L137.470081,11.178289 L137.470081,24.4652539 L137.441507,27.151221 L133.098241,27.151221 L133.126815,4.17763016 Z M118.696886,17.1217056 L120.354185,17.1217056 C121.459056,17.1217056 122.021008,17.6455592 122.040058,18.6932821 L121.897187,26.8083315 L118.496867,26.8083315 L118.696886,17.1217056 Z M127.411992,19.7219503 L127.383418,25.3224774 C127.059576,26.6178439 126.211886,27.227419 124.840321,27.151221 L122.925855,27.151221 L122.925855,17.950355 C122.925855,16.8264341 122.182936,16.264482 120.697074,16.264482 L118.411145,16.264482 L118.411145,12.7498655 L122.925855,12.7498655 L122.925855,12.2926796 C122.925855,11.6259469 122.230559,11.2925855 120.839945,11.2925855 L118.182552,11.2925855 L118.182552,7.80654314 L120.268462,7.80654314 L119.525535,5.12057605 L118.411145,5.12057605 L118.411145,1.63453367 L122.925855,1.63453367 L122.925855,0.177253657 L127.726307,0.177253657 L127.726307,1.63453367 L132.212444,1.63453367 L132.212444,5.12057605 L130.983756,5.12057605 L130.212255,7.80654314 L132.212444,7.80654314 L132.212444,11.2925855 L127.440566,11.2925855 L127.440566,12.7498655 L131.983851,12.7498655 L131.983851,16.264482 L127.440566,16.264482 L127.411992,17.236002 L129.983662,17.236002 C130.783742,17.2169525 131.364743,17.6836585 131.726684,18.6361338 L132.241018,26.8369057 L128.669253,26.8369057 L128.269215,20.6363221 C128.250166,20.0267378 128.002526,19.7219503 127.526288,19.7219503 L127.411992,19.7219503 Z M164.72979,0.748736015 L168.701592,0.748736015 L168.701592,26.5225904 L164.72979,26.5225904 L164.72979,0.748736015 Z M169.958853,0.177253657 L174.387842,0.177253657 L174.416416,24.4652539 C174.26402,26.1797095 173.425854,27.0750229 171.901893,27.151221 L169.958853,27.151221 L169.958853,0.177253657 Z M149.785526,10.7782514 L147.442448,10.7782514 L150.042693,2.54890544 C150.442733,1.15829142 151.309472,0.415371783 152.642938,0.320124247 L159.186411,0.320124247 C159.98649,0.320124247 160.653213,0.777305562 161.186599,1.69168191 L164.501197,10.7782514 L161.843804,10.7782514 C162.453388,11.2735386 162.720077,11.9402613 162.643879,12.7784397 L162.586731,18.3789668 C162.567681,20.2077194 161.662843,21.1220821 159.87219,21.1220821 L155.271757,21.1220821 L155.271757,17.5503173 L157.271945,17.5503173 C157.729133,17.5503173 157.957724,17.3122021 157.957724,16.8359644 L157.957724,14.8357761 C157.957724,14.0737959 157.510067,13.6928114 156.61474,13.6928114 L153.471587,13.6928114 L153.471587,22.7793809 C153.471587,23.2556186 153.709703,23.4937339 154.18594,23.4937339 L163.815418,23.4937339 L163.815418,24.8367174 C163.815418,26.474975 162.986777,27.2940915 161.32947,27.2940915 L151.557121,27.2940915 C149.747418,27.275042 148.84258,26.3606794 148.84258,24.5509762 L148.756858,13.0070326 C148.794957,11.6926166 149.137843,10.949697 149.785526,10.7782514 Z M154.128792,4.12048193 L152.757234,8.77806315 C152.623888,9.21620181 152.433396,9.58766163 152.185752,9.89245374 L159.38643,9.89245374 L157.357667,4.12048193 L154.128792,4.12048193 Z M176.702345,27.1797951 L176.702345,23.3794374 L183.8173,23.3794374 L183.8173,20.6363221 L179.645479,20.6363221 L176.845216,3.7490184 L181.017037,3.7490184 L183.8173,18.8647268 L183.8173,0.14867954 L188.417733,0.14867954 L188.417733,23.3794374 L191.760905,23.3794374 L191.760905,0.14867954 L196.389912,0.14867954 L196.389912,19.2647644 L199.390195,3.7490184 L203.562016,3.7490184 L201.16179,18.6647079 C200.723651,19.9791239 199.742616,20.6363221 198.218656,20.6363221 L196.389912,20.6363221 L196.389912,23.3794374 L203.676312,23.3794374 L203.676312,25.2653292 C203.676312,26.5416462 202.86672,27.1797951 201.247512,27.1797951 L176.702345,27.1797951 Z M210.791268,13.3784961 L210.791268,24.4652539 C210.772218,26.2940066 209.895954,27.18932 208.162449,27.151221 L205.990816,27.151221 L205.990816,13.3213479 C205.990816,10.883011 207.276638,9.6638608 209.848322,9.6638608 L212.162825,9.6638608 L210.334082,5.834929 L205.962242,5.834929 L205.962242,2.06314544 L216.477517,2.06314544 L216.477517,0.177253657 L221.277969,0.177253657 L221.277969,2.06314544 L232.450449,2.06314544 L232.450449,5.834929 L228.36435,5.834929 L226.849922,9.6638608 L232.936209,9.6638608 L232.936209,13.3784961 L210.791268,13.3784961 Z M223.192435,5.834929 L215.763164,5.834929 C216.772788,8.38756296 218.01575,9.6638608 219.492087,9.6638608 C220.968423,9.6638608 222.201861,8.38756296 223.192435,5.834929 Z M235.222139,27.1797951 L235.222139,23.3794374 L242.337094,23.3794374 L242.337094,20.6363221 L238.165273,20.6363221 L235.365009,3.7490184 L239.53683,3.7490184 L242.337094,18.8647268 L242.337094,0.14867954 L246.937527,0.14867954 L246.937527,23.3794374 L250.280699,23.3794374 L250.280699,0.14867954 L254.909706,0.14867954 L254.909706,19.2647644 L257.909988,3.7490184 L262.081809,3.7490184 L259.681583,18.6647079 C259.243445,19.9791239 258.26241,20.6363221 256.738449,20.6363221 L254.909706,20.6363221 L254.909706,23.3794374 L262.196106,23.3794374 L262.196106,25.2653292 C262.196106,26.5416462 261.386514,27.1797951 259.767306,27.1797951 L235.222139,27.1797951 Z M289.627259,11.6640491 C290.998824,12.2545838 291.32266,13.3594386 290.598779,14.9786467 L288.884332,17.4360209 L291.22741,17.4360209 L291.22741,21.1792303 L288.770035,21.1792303 L288.770035,24.4366798 C288.770035,26.2463829 287.874722,27.151221 286.084068,27.151221 L282.540878,27.151221 L282.598026,23.8651974 L284.026732,23.8651974 C284.48392,23.8651974 284.712511,23.6270821 284.712511,23.1508444 L284.712511,22.1793244 C284.712511,21.5125917 284.179133,21.1792303 283.11236,21.1792303 L281.455061,21.1792303 L281.455061,17.4360209 L284.712511,17.4360209 L284.712511,16.8073903 L285.969772,14.9786467 L281.683654,14.9786467 L281.683654,11.6640491 L289.627259,11.6640491 Z M264.65348,3.32040663 C264.65348,1.22496084 265.605941,0.177253657 267.510892,0.177253657 L271.911306,0.177253657 L271.911306,4.03475957 L267.739485,4.03475957 L267.739485,18.2932444 C267.739485,18.7504326 267.968075,18.9790232 268.425264,18.9790232 L269.853969,18.9790232 L269.853969,18.1503738 L268.653856,18.0075032 L267.796633,7.66367255 L269.225339,7.72082078 L269.853969,13.4927926 L269.853969,5.32059488 L272.025602,5.32059488 L272.025602,25.2081809 C272.025602,25.6463196 271.873209,26.0749271 271.568417,26.4940162 C271.187426,26.9321549 270.501654,27.151221 269.51108,27.151221 L264.539184,27.151221 L264.482035,23.6366045 L269.111042,23.6366045 C269.377735,23.6175549 269.568228,23.5413581 269.682525,23.4080115 C269.796822,23.274665 269.853969,23.103222 269.853969,22.8936774 L269.853969,22.4936397 L267.910929,22.4936397 C265.739286,22.4745902 264.65348,21.3887846 264.65348,19.2361903 L264.65348,3.32040663 Z M278.311908,25.4367739 L278.311908,18.7790044 L277.28324,18.7218562 L276.254572,7.57795019 L277.854722,7.52080196 L278.311908,13.578515 L278.311908,5.49203959 C278.311908,4.4633662 277.969022,3.94903722 277.28324,3.94903722 L276.254572,3.94903722 L276.254572,27.151221 L272.768529,27.151221 L272.768529,0.205827775 L278.369057,0.205827775 C280.121611,0.205827775 280.978826,1.13923963 280.940727,3.00609133 L280.997875,7.97798784 L281.912247,2.34888662 C282.102742,0.939223087 282.88376,0.215352672 284.255325,0.177253657 L291.170261,0.177253657 L291.113113,3.69187016 L285.39829,3.72044428 L285.169697,4.5490937 L287.055588,4.5490937 L288.255701,10.8639738 L285.912624,10.8639738 L284.883955,6.34926312 L284.369621,8.80663726 C284.179126,9.94960769 283.702896,10.5210843 282.940915,10.5210843 L280.940727,10.5210843 L280.940727,24.0937903 C280.902628,24.9319687 280.445447,25.3605761 279.56917,25.3796256 L278.311908,25.4367739 Z M289.170073,10.8068255 L287.798515,4.57766781 L290.25589,4.57766781 L291.456003,10.8068255 L289.170073,10.8068255 Z M310.65781,0.14867954 L310.65781,9.86387963 L319.858676,5.12057605 L319.858676,10.4067879 L310.65781,15.0643691 L310.65781,22.1793244 C310.65781,22.6365126 310.90545,22.8651033 311.400737,22.8651033 L320.715899,22.8651033 L320.658751,24.6366986 C320.69685,26.3321047 319.877734,27.1797951 318.201377,27.1797951 L309.743438,27.1797951 C307.267002,27.1607456 306.028803,25.8939723 306.028803,23.3794374 L306.028803,17.2074279 L302.085574,18.921875 L302.085574,13.6070891 L306.028803,11.7783455 L306.028803,0.14867954 L310.65781,0.14867954 Z M301.856981,0.262976011 C301.095001,4.60626365 299.66631,8.05417273 297.570864,10.6068067 L300.199683,10.5782326 L300.199683,24.6366986 C300.237782,26.4464018 299.209124,27.2940921 297.113678,27.1797951 L295.570676,27.1797951 L295.570676,12.4926985 L293.741932,13.2070514 L293.79908,7.60652431 C295.475437,6.04446472 296.675538,3.59663977 297.399419,0.262976011 L301.856981,0.262976011 Z M349.718629,21.579268 L349.690055,24.2938092 L338.774742,24.2938092 L338.774742,27.151221 L334.060012,27.151221 L334.060012,26.3225715 C334.060012,24.9700565 333.155174,24.2938092 331.345471,24.2938092 L323.001829,24.2938092 L323.001829,7.29220901 C323.039928,4.03474329 324.621013,2.40603485 327.745132,2.40603485 L334.060012,2.40603485 L334.060012,0.177253657 L338.774742,0.177253657 L338.774742,2.40603485 L345.432511,2.40603485 C348.308987,2.40603485 349.737678,3.99664484 349.718629,7.17791254 L349.718629,21.579268 Z M334.060012,20.5791738 L334.060012,8.92093373 C334.060012,7.05408203 333.098027,6.12067018 331.174026,6.12067018 L327.745132,6.12067018 L327.745132,20.5791738 L334.060012,20.5791738 Z M338.774742,6.12067018 L338.774742,20.5791738 L344.975325,20.5791738 L344.975325,9.00665609 C344.975325,7.08265586 344.032389,6.12067018 342.146488,6.12067018 L338.774742,6.12067018 Z M352.976078,2.43460897 L357.605086,2.43460897 L356.947881,25.2939033 C356.643089,26.5321213 355.843021,27.151221 354.547655,27.151221 L352.261725,27.151221 L352.976078,2.43460897 Z M358.548031,0.177253657 L363.291335,0.177253657 L363.291335,22.3507691 C363.291335,22.8079573 363.52945,23.036548 364.005688,23.036548 L373.66374,23.036548 L373.66374,24.6938468 C373.66374,26.3321044 372.835099,27.151221 371.177792,27.151221 L362.376963,27.151221 C359.824329,27.1321714 358.548031,25.9130213 358.548031,23.4937339 L358.548031,0.177253657 Z M368.891862,0.891606605 L369.549067,10.5782326 C369.701463,12.2736387 370.339612,12.9736976 371.463533,12.6784302 C372.587454,12.3831629 373.28275,10.8068398 373.549443,7.94941373 L373.949481,2.54890544 L378.407043,2.49175721 L379.235693,27.0369245 L374.749556,27.0369245 L374.349519,14.7786279 C373.454192,16.5883311 371.815959,17.4455461 369.43477,17.3502985 C366.939285,17.255051 365.453446,15.5025226 364.977208,12.0926608 L364.348577,0.891606605 L368.891862,0.891606605 Z" id="path-1"></path>
        <path d="M0.305612695,46.848537 L0.305612695,45.6795684 L3.96532471,45.6795684 L4.38554217,45.259351 L4.38554217,44.778011 L3.95004408,44.3425129 L1.36761681,44.3425129 L0.305612695,43.2805088 L0.305612695,41.744805 L1.37525713,40.6751606 L5.01204819,40.6751606 L5.01204819,41.8441291 L1.90243902,41.8441291 L1.47458125,42.2719869 L1.47458125,42.8297301 L1.82603585,43.1811847 L4.48486629,43.1811847 L5.53923009,44.2355485 L5.53923009,45.7941732 L4.48486629,46.848537 L0.305612695,46.848537 Z M11.6084594,46.848537 L10.393649,46.848537 L10.393649,44.3654339 L7.55909124,44.3654339 L7.55909124,46.848537 L6.33664046,46.848537 L6.33664046,40.6598799 L7.55909124,40.6598799 L7.55909124,43.1429831 L10.393649,43.1429831 L10.393649,40.6598799 L11.6084594,40.6598799 L11.6084594,46.848537 Z M17.9680209,42.3178288 L17.9680209,46.848537 L16.7837717,46.848537 L16.7837717,45.0301415 L13.6818028,45.0301415 L13.6818028,46.848537 L12.5051939,46.848537 L12.5051939,42.3178288 L14.1860638,40.636959 L16.287151,40.636959 L17.9680209,42.3178288 Z M13.6741625,43.8840939 C13.6843496,43.8790003 13.9313841,43.8764535 14.4152733,43.8764535 C14.9246303,43.8815471 15.3588507,43.8840939 15.7179474,43.8840939 L16.7837717,43.8840939 L16.7837717,42.9290542 L15.660645,41.8059275 L14.7896488,41.8059275 L13.6741625,42.9214139 L13.6741625,43.8840939 Z M24.0754518,46.848537 L20.0184433,42.7915285 L20.0184433,46.848537 L18.857115,46.848537 L18.857115,40.6751606 L19.6440677,40.6751606 L23.7239972,44.7627304 L23.7239972,40.6751606 L24.8929658,40.6751606 L24.8929658,46.848537 L24.0754518,46.848537 Z M30.3204085,46.848537 L26.866985,46.848537 L25.7897003,45.7712523 L25.7897003,41.7371647 L26.8440641,40.6828009 L31.0997208,40.6828009 L31.0997208,41.8441291 L27.4629298,41.8441291 L26.9510285,42.3560304 L26.9510285,45.1753075 L27.4552895,45.6795684 L29.7244637,45.6795684 L30.2287247,45.1753075 L30.2287247,44.3501532 L28.6624596,44.3501532 L28.6624596,43.1811847 L31.3900529,43.1811847 L31.3900529,45.7788926 L30.3204085,46.848537 Z M32.2027439,40.6904412 L36.1986299,40.6904412 L37.1613099,41.6531212 L37.1613099,43.4867974 L36.7487327,43.8993745 L37.1613099,44.3119516 L37.1613099,46.848537 L36.0152623,46.848537 L36.0152623,44.7932916 L35.5874045,44.3654339 L33.3411512,44.3654339 L33.3411512,46.848537 L32.2027439,46.848537 L32.2027439,40.6904412 Z M33.3411512,41.8441291 L33.3411512,43.3645523 L35.5874045,43.3645523 L36.0152623,42.9366945 L36.0152623,42.2796272 L35.5797642,41.8441291 L33.3411512,41.8441291 Z M43.345144,42.3178288 L43.345144,46.848537 L42.1608948,46.848537 L42.1608948,45.0301415 L39.0589259,45.0301415 L39.0589259,46.848537 L37.8823171,46.848537 L37.8823171,42.3178288 L39.5631869,40.636959 L41.6642742,40.636959 L43.345144,42.3178288 Z M39.0512856,43.8840939 C39.0614728,43.8790003 39.3085072,43.8764535 39.7923964,43.8764535 C40.3017535,43.8815471 40.7359738,43.8840939 41.0950705,43.8840939 L42.1608948,43.8840939 L42.1608948,42.9290542 L41.0377681,41.8059275 L40.166772,41.8059275 L39.0512856,42.9214139 L39.0512856,43.8840939 Z M45.2274794,40.6675203 L49.0399978,40.6675203 L50.1096422,41.7371647 L50.1096422,45.7865329 L49.0476381,46.848537 L45.2121988,46.848537 L44.157835,45.7941732 L44.157835,41.7371647 L45.2274794,40.6675203 Z M45.8463451,41.912892 L45.4032067,42.3560304 L45.4032067,45.1676672 L45.8387048,45.6031653 L48.4287724,45.6031653 L48.8795511,45.1523865 L48.8795511,42.4706352 L48.321808,41.912892 L45.8463451,41.912892 Z M56.2962937,46.848537 L55.0738429,46.848537 L55.0738429,40.6675203 L56.2962937,40.6675203 L56.2962937,46.848537 Z M62.4724875,46.848537 L58.415479,42.7915285 L58.415479,46.848537 L57.2541507,46.848537 L57.2541507,40.6751606 L58.0411034,40.6751606 L62.1210329,44.7627304 L62.1210329,40.6751606 L63.2900015,40.6751606 L63.2900015,46.848537 L62.4724875,46.848537 Z M69.4814759,46.848537 L65.4244674,42.7915285 L65.4244674,46.848537 L64.2631391,46.848537 L64.2631391,40.6751606 L65.0500918,40.6751606 L69.1300213,44.7627304 L69.1300213,40.6751606 L70.2989899,40.6751606 L70.2989899,46.848537 L69.4814759,46.848537 Z M72.2653688,40.6675203 L76.0778872,40.6675203 L77.1475316,41.7371647 L77.1475316,45.7865329 L76.0855275,46.848537 L72.2500882,46.848537 L71.1957244,45.7941732 L71.1957244,41.7371647 L72.2653688,40.6675203 Z M72.8842345,41.912892 L72.4410961,42.3560304 L72.4410961,45.1676672 L72.8765942,45.6031653 L75.4666618,45.6031653 L75.9174405,45.1523865 L75.9174405,42.4706352 L75.3596973,41.912892 L72.8842345,41.912892 Z M77.7921356,40.6828009 L78.9229026,40.6828009 L78.9229026,44.1056631 L80.3592823,45.5420427 L81.8109426,44.0980228 L81.8109426,40.6828009 L82.9493498,40.6828009 L82.9493498,44.7016078 L80.8024207,46.848537 L79.9314245,46.848537 L77.7921356,44.7092481 L77.7921356,40.6828009 Z M89.1484646,42.3178288 L89.1484646,46.848537 L87.9642154,46.848537 L87.9642154,45.0301415 L84.8622465,45.0301415 L84.8622465,46.848537 L83.6856377,46.848537 L83.6856377,42.3178288 L85.3665075,40.636959 L87.4675948,40.636959 L89.1484646,42.3178288 Z M84.8546062,43.8840939 C84.8647934,43.8790003 85.1118278,43.8764535 85.595717,43.8764535 C86.1050741,43.8815471 86.5392944,43.8840939 86.8983911,43.8840939 L87.9642154,43.8840939 L87.9642154,42.9290542 L86.8410887,41.8059275 L85.9700926,41.8059275 L84.8546062,42.9214139 L84.8546062,43.8840939 Z M95.5385873,41.8746904 L93.2846937,41.8746904 L93.2846937,46.848537 L92.0622429,46.848537 L92.0622429,41.8746904 L89.8083493,41.8746904 L89.8083493,40.6598799 L95.5385873,40.6598799 L95.5385873,41.8746904 Z M97.4132824,46.848537 L96.1908316,46.848537 L96.1908316,40.6675203 L97.4132824,40.6675203 L97.4132824,46.848537 Z M99.3643807,40.6675203 L103.176899,40.6675203 L104.246543,41.7371647 L104.246543,45.7865329 L103.184539,46.848537 L99.3491001,46.848537 L98.2947363,45.7941732 L98.2947363,41.7371647 L99.3643807,40.6675203 Z M99.9832464,41.912892 L99.540108,42.3560304 L99.540108,45.1676672 L99.9756061,45.6031653 L102.565674,45.6031653 L103.016452,45.1523865 L103.016452,42.4706352 L102.458709,41.912892 L99.9832464,41.912892 Z M110.262291,46.848537 L106.205282,42.7915285 L106.205282,46.848537 L105.043954,46.848537 L105.043954,40.6751606 L105.830907,40.6751606 L109.910836,44.7627304 L109.910836,40.6751606 L111.079805,40.6751606 L111.079805,46.848537 L110.262291,46.848537 Z M121.606156,42.3178288 L121.606156,46.848537 L120.421907,46.848537 L120.421907,45.0301415 L117.319938,45.0301415 L117.319938,46.848537 L116.143329,46.848537 L116.143329,42.3178288 L117.824199,40.636959 L119.925287,40.636959 L121.606156,42.3178288 Z M117.312298,43.8840939 C117.322485,43.8790003 117.56952,43.8764535 118.053409,43.8764535 C118.562766,43.8815471 118.996986,43.8840939 119.356083,43.8840939 L120.421907,43.8840939 L120.421907,42.9290542 L119.29878,41.8059275 L118.427784,41.8059275 L117.312298,42.9214139 L117.312298,43.8840939 Z M127.713587,46.848537 L123.656579,42.7915285 L123.656579,46.848537 L122.495251,46.848537 L122.495251,40.6751606 L123.282203,40.6751606 L127.362133,44.7627304 L127.362133,40.6751606 L128.531101,40.6751606 L128.531101,46.848537 L127.713587,46.848537 Z M129.504239,46.848537 L129.504239,40.6675203 L133.744615,40.6675203 L134.844821,41.767726 L134.844821,45.7636119 L133.759896,46.848537 L129.504239,46.848537 Z M129.504239,43.9021294 L130.688488,43.9021294 L130.688488,43.7771294 L129.504239,43.7771294 L129.504239,43.9021294 Z M130.688488,41.8441291 L130.688488,45.6795684 L133.179232,45.6795684 L133.660572,45.1982285 L133.660572,42.3331094 L133.171591,41.8441291 L130.688488,41.8441291 Z M144.935674,46.848537 L139.824302,46.848537 L139.824302,40.6675203 L144.935674,40.6675203 L144.935674,41.8823307 L141.031472,41.8823307 L141.031472,43.1429831 L144.59186,43.1429831 L144.59186,44.3654339 L141.031472,44.3654339 L141.031472,45.6260862 L144.935674,45.6260862 L144.935674,46.848537 Z M150.951422,46.848537 L146.894413,42.7915285 L146.894413,46.848537 L145.733085,46.848537 L145.733085,40.6751606 L146.520037,40.6751606 L150.599967,44.7627304 L150.599967,40.6751606 L151.768935,40.6751606 L151.768935,46.848537 L150.951422,46.848537 Z M158.243102,41.8746904 L155.989208,41.8746904 L155.989208,46.848537 L154.766757,46.848537 L154.766757,41.8746904 L152.512864,41.8746904 L152.512864,40.6598799 L158.243102,40.6598799 L158.243102,41.8746904 Z M158.895346,40.6904412 L162.891232,40.6904412 L163.853912,41.6531212 L163.853912,43.4867974 L163.441335,43.8993745 L163.853912,44.3119516 L163.853912,46.848537 L162.707864,46.848537 L162.707864,44.7932916 L162.280007,44.3654339 L160.033753,44.3654339 L160.033753,46.848537 L158.895346,46.848537 L158.895346,40.6904412 Z M160.033753,41.8441291 L160.033753,43.3645523 L162.280007,43.3645523 L162.707864,42.9366945 L162.707864,42.2796272 L162.272366,41.8441291 L160.033753,41.8441291 Z M169.762695,46.848537 L164.651322,46.848537 L164.651322,40.6675203 L169.762695,40.6675203 L169.762695,41.8823307 L165.858493,41.8823307 L165.858493,43.1429831 L169.41888,43.1429831 L169.41888,44.3654339 L165.858493,44.3654339 L165.858493,45.6260862 L169.762695,45.6260862 L169.762695,46.848537 Z M170.560105,40.6751606 L174.685876,40.6751606 L175.656197,41.6454809 L175.656197,43.4333151 L174.670596,44.4189161 L171.736714,44.4189161 L171.736714,46.848537 L170.560105,46.848537 L170.560105,40.6751606 Z M171.729074,41.8364888 L171.729074,43.2499475 L174.05937,43.2499475 L174.487228,42.8220898 L174.487228,42.2567063 L174.067011,41.8364888 L171.729074,41.8364888 Z M176.316081,40.6904412 L180.311967,40.6904412 L181.274647,41.6531212 L181.274647,43.4867974 L180.86207,43.8993745 L181.274647,44.3119516 L181.274647,46.848537 L180.1286,46.848537 L180.1286,44.7932916 L179.700742,44.3654339 L177.454489,44.3654339 L177.454489,46.848537 L176.316081,46.848537 L176.316081,40.6904412 Z M177.454489,41.8441291 L177.454489,43.3645523 L179.700742,43.3645523 L180.1286,42.9366945 L180.1286,42.2796272 L179.693102,41.8441291 L177.454489,41.8441291 Z M187.18343,46.848537 L182.072058,46.848537 L182.072058,40.6675203 L187.18343,40.6675203 L187.18343,41.8823307 L183.279228,41.8823307 L183.279228,43.1429831 L186.839616,43.1429831 L186.839616,44.3654339 L183.279228,44.3654339 L183.279228,45.6260862 L187.18343,45.6260862 L187.18343,46.848537 Z M193.199177,46.848537 L189.142169,42.7915285 L189.142169,46.848537 L187.98084,46.848537 L187.98084,40.6751606 L188.767793,40.6751606 L192.847723,44.7627304 L192.847723,40.6751606 L194.016691,40.6751606 L194.016691,46.848537 L193.199177,46.848537 Z M200.101201,46.848537 L194.989829,46.848537 L194.989829,40.6675203 L200.101201,40.6675203 L200.101201,41.8823307 L196.196999,41.8823307 L196.196999,43.1429831 L199.757387,43.1429831 L199.757387,44.3654339 L196.196999,44.3654339 L196.196999,45.6260862 L200.101201,45.6260862 L200.101201,46.848537 Z M200.822208,45.8018135 L200.822208,40.6522396 L201.968256,40.6522396 L201.968256,45.1905881 L202.472517,45.6948491 L204.428438,45.6948491 L204.932699,45.1905881 L204.932699,40.6522396 L206.094027,40.6522396 L206.094027,45.8018135 L205.047304,46.848537 L201.868932,46.848537 L200.822208,45.8018135 Z M206.899078,40.6904412 L210.894964,40.6904412 L211.857644,41.6531212 L211.857644,43.4867974 L211.445067,43.8993745 L211.857644,44.3119516 L211.857644,46.848537 L210.711596,46.848537 L210.711596,44.7932916 L210.283739,44.3654339 L208.037485,44.3654339 L208.037485,46.848537 L206.899078,46.848537 L206.899078,40.6904412 Z M208.037485,41.8441291 L208.037485,43.3645523 L210.283739,43.3645523 L210.711596,42.9366945 L210.711596,42.2796272 L210.276098,41.8441291 L208.037485,41.8441291 Z M212.502248,46.848537 L212.502248,45.6795684 L216.16196,45.6795684 L216.582177,45.259351 L216.582177,44.778011 L216.146679,44.3425129 L213.564252,44.3425129 L212.502248,43.2805088 L212.502248,41.744805 L213.571892,40.6751606 L217.208684,40.6751606 L217.208684,41.8441291 L214.099074,41.8441291 L213.671217,42.2719869 L213.671217,42.8297301 L214.022671,43.1811847 L216.681502,43.1811847 L217.735865,44.2355485 L217.735865,45.7941732 L216.681502,46.848537 L212.502248,46.848537 Z M223.805095,46.848537 L222.590284,46.848537 L222.590284,44.3654339 L219.755727,44.3654339 L219.755727,46.848537 L218.533276,46.848537 L218.533276,40.6598799 L219.755727,40.6598799 L219.755727,43.1429831 L222.590284,43.1429831 L222.590284,40.6598799 L223.805095,40.6598799 L223.805095,46.848537 Z M226.000683,46.848537 L224.778232,46.848537 L224.778232,40.6675203 L226.000683,40.6675203 L226.000683,46.848537 Z M226.95854,40.6751606 L231.084312,40.6751606 L232.054632,41.6454809 L232.054632,43.4333151 L231.069031,44.4189161 L228.135149,44.4189161 L228.135149,46.848537 L226.95854,46.848537 L226.95854,40.6751606 Z M228.127509,41.8364888 L228.127509,43.2499475 L230.457806,43.2499475 L230.885663,42.8220898 L230.885663,42.2567063 L230.465446,41.8364888 L228.127509,41.8364888 Z M238.103758,46.848537 L236.881307,46.848537 L236.881307,40.6675203 L238.103758,40.6675203 L238.103758,46.848537 Z M244.279952,46.848537 L240.222943,42.7915285 L240.222943,46.848537 L239.061615,46.848537 L239.061615,40.6751606 L239.848567,40.6751606 L243.928497,44.7627304 L243.928497,40.6751606 L245.097465,40.6751606 L245.097465,46.848537 L244.279952,46.848537 Z M246.070603,46.848537 L246.070603,40.6675203 L250.310979,40.6675203 L251.411185,41.767726 L251.411185,45.7636119 L250.32626,46.848537 L246.070603,46.848537 Z M246.070603,43.9021294 L247.254852,43.9021294 L247.254852,43.7771294 L246.070603,43.7771294 L246.070603,43.9021294 Z M247.254852,41.8441291 L247.254852,45.6795684 L249.745596,45.6795684 L250.226936,45.1982285 L250.226936,42.3331094 L249.737955,41.8441291 L247.254852,41.8441291 Z M252.147473,45.8018135 L252.147473,40.6522396 L253.29352,40.6522396 L253.29352,45.1905881 L253.797781,45.6948491 L255.753703,45.6948491 L256.257964,45.1905881 L256.257964,40.6522396 L257.419292,40.6522396 L257.419292,45.8018135 L256.372568,46.848537 L253.194196,46.848537 L252.147473,45.8018135 Z M258.071536,46.848537 L258.071536,45.6795684 L261.731248,45.6795684 L262.151466,45.259351 L262.151466,44.778011 L261.715968,44.3425129 L259.13354,44.3425129 L258.071536,43.2805088 L258.071536,41.744805 L259.141181,40.6751606 L262.777972,40.6751606 L262.777972,41.8441291 L259.668362,41.8441291 L259.240505,42.2719869 L259.240505,42.8297301 L259.591959,43.1811847 L262.25079,43.1811847 L263.305154,44.2355485 L263.305154,45.7941732 L262.25079,46.848537 L258.071536,46.848537 Z M269.603592,41.8746904 L267.349699,41.8746904 L267.349699,46.848537 L266.127248,46.848537 L266.127248,41.8746904 L263.873354,41.8746904 L263.873354,40.6598799 L269.603592,40.6598799 L269.603592,41.8746904 Z M270.255837,40.6904412 L274.251723,40.6904412 L275.214403,41.6531212 L275.214403,43.4867974 L274.801826,43.8993745 L275.214403,44.3119516 L275.214403,46.848537 L274.068355,46.848537 L274.068355,44.7932916 L273.640497,44.3654339 L271.394244,44.3654339 L271.394244,46.848537 L270.255837,46.848537 L270.255837,40.6904412 Z M271.394244,41.8441291 L271.394244,43.3645523 L273.640497,43.3645523 L274.068355,42.9366945 L274.068355,42.2796272 L273.632857,41.8441291 L271.394244,41.8441291 Z M275.782604,40.7210025 L276.6536,40.7210025 L278.846371,42.9137736 L281.039142,40.7210025 L281.910138,40.7210025 L281.910138,41.6684018 L279.488158,44.0903824 L279.488158,46.848537 L278.189304,46.848537 L278.189304,44.0903824 L275.782604,41.6836825 L275.782604,40.7210025 Z M287.951624,46.848537 L286.729173,46.848537 L286.729173,40.6675203 L287.951624,40.6675203 L287.951624,46.848537 Z M294.127817,46.848537 L290.070809,42.7915285 L290.070809,46.848537 L288.909481,46.848537 L288.909481,40.6751606 L289.696433,40.6751606 L293.776363,44.7627304 L293.776363,40.6751606 L294.945331,40.6751606 L294.945331,46.848537 L294.127817,46.848537 Z M300.976359,40.614038 L300.976359,41.7906469 L297.530576,41.7906469 L297.018675,42.3025482 L297.018675,45.1753075 L297.522936,45.6795684 L300.976359,45.6795684 L300.976359,46.848537 L296.91171,46.848537 L295.842066,45.7788926 L295.842066,41.6913228 L296.919351,40.614038 L300.976359,40.614038 Z M301.567481,45.8018135 L301.567481,40.6522396 L302.713529,40.6522396 L302.713529,45.1905881 L303.217789,45.6948491 L305.173711,45.6948491 L305.677972,45.1905881 L305.677972,40.6522396 L306.8393,40.6522396 L306.8393,45.8018135 L305.792576,46.848537 L302.614204,46.848537 L301.567481,45.8018135 Z M308.83624,44.319592 L308.83624,45.6566475 L311.510351,45.6566475 L311.869446,45.2975526 L311.869446,44.6863272 L311.502711,44.319592 L308.83624,44.319592 Z M307.644351,46.848537 L307.644351,40.614038 L312.052814,40.614038 L313.038415,41.599639 L313.038415,43.2957894 L312.495952,43.838252 L313.038415,44.3807145 L313.038415,45.8247345 L312.014612,46.848537 L307.644351,46.848537 Z M307.644351,42.7671629 L308.8286,42.7671629 L308.8286,42.6561873 L307.644351,42.6561873 L307.644351,42.7671629 Z M308.8286,41.7906469 L308.8286,43.1429831 L311.502711,43.1429831 L311.854165,42.7915285 L311.854165,42.1268209 L311.517991,41.7906469 L308.8286,41.7906469 Z M319.24517,42.3178288 L319.24517,46.848537 L318.060921,46.848537 L318.060921,45.0301415 L314.958952,45.0301415 L314.958952,46.848537 L313.782343,46.848537 L313.782343,42.3178288 L315.463213,40.636959 L317.5643,40.636959 L319.24517,42.3178288 Z M314.951311,43.8840939 C314.961498,43.8790003 315.208533,43.8764535 315.692422,43.8764535 C316.201779,43.8815471 316.636,43.8840939 316.995096,43.8840939 L318.060921,43.8840939 L318.060921,42.9290542 L316.937794,41.8059275 L316.066798,41.8059275 L314.951311,42.9214139 L314.951311,43.8840939 Z M325.635292,41.8746904 L323.381399,41.8746904 L323.381399,46.848537 L322.158948,46.848537 L322.158948,41.8746904 L319.905054,41.8746904 L319.905054,40.6598799 L325.635292,40.6598799 L325.635292,41.8746904 Z M327.509988,46.848537 L326.287537,46.848537 L326.287537,40.6675203 L327.509988,40.6675203 L327.509988,46.848537 Z M329.461086,40.6675203 L333.273604,40.6675203 L334.343249,41.7371647 L334.343249,45.7865329 L333.281244,46.848537 L329.445805,46.848537 L328.391441,45.7941732 L328.391441,41.7371647 L329.461086,40.6675203 Z M330.079952,41.912892 L329.636813,42.3560304 L329.636813,45.1676672 L330.072311,45.6031653 L332.662379,45.6031653 L333.113158,45.1523865 L333.113158,42.4706352 L332.555414,41.912892 L330.079952,41.912892 Z M340.358996,46.848537 L336.301987,42.7915285 L336.301987,46.848537 L335.140659,46.848537 L335.140659,40.6751606 L335.927612,40.6751606 L340.007541,44.7627304 L340.007541,40.6751606 L341.17651,40.6751606 L341.17651,46.848537 L340.358996,46.848537 Z M351.374328,40.614038 L351.374328,41.7906469 L347.928545,41.7906469 L347.416643,42.3025482 L347.416643,45.1753075 L347.920904,45.6795684 L351.374328,45.6795684 L351.374328,46.848537 L347.309679,46.848537 L346.240035,45.7788926 L346.240035,41.6913228 L347.317319,40.614038 L351.374328,40.614038 Z M357.153225,46.848537 L352.041853,46.848537 L352.041853,40.6675203 L357.153225,40.6675203 L357.153225,41.8823307 L353.249023,41.8823307 L353.249023,43.1429831 L356.809411,43.1429831 L356.809411,44.3654339 L353.249023,44.3654339 L353.249023,45.6260862 L357.153225,45.6260862 L357.153225,46.848537 Z M363.168972,46.848537 L359.111964,42.7915285 L359.111964,46.848537 L357.950635,46.848537 L357.950635,40.6751606 L358.737588,40.6751606 L362.817518,44.7627304 L362.817518,40.6751606 L363.986486,40.6751606 L363.986486,46.848537 L363.168972,46.848537 Z M370.460652,41.8746904 L368.206759,41.8746904 L368.206759,46.848537 L366.984308,46.848537 L366.984308,41.8746904 L364.730414,41.8746904 L364.730414,40.6598799 L370.460652,40.6598799 L370.460652,41.8746904 Z M376.224269,46.848537 L371.112897,46.848537 L371.112897,40.6675203 L376.224269,40.6675203 L376.224269,41.8823307 L372.320067,41.8823307 L372.320067,43.1429831 L375.880455,43.1429831 L375.880455,44.3654339 L372.320067,44.3654339 L372.320067,45.6260862 L376.224269,45.6260862 L376.224269,46.848537 Z M377.021679,40.6904412 L381.017565,40.6904412 L381.980245,41.6531212 L381.980245,43.4867974 L381.567668,43.8993745 L381.980245,44.3119516 L381.980245,46.848537 L380.834198,46.848537 L380.834198,44.7932916 L380.40634,44.3654339 L378.160087,44.3654339 L378.160087,46.848537 L377.021679,46.848537 L377.021679,40.6904412 Z M378.160087,41.8441291 L378.160087,43.3645523 L380.40634,43.3645523 L380.834198,42.9366945 L380.834198,42.2796272 L380.3987,41.8441291 L378.160087,41.8441291 Z" id="path-2"></path>
    </defs>
    <g id="Page-1" stroke="none" stroke-width="1" fill="none" fill-rule="evenodd">
        <g id="联系我们" transform="translate(-361.000000, -89.000000)">
            <g id="Group-29" transform="translate(361.000000, 89.000000)">
                <g id="Group" transform="translate(1.000000, 1.000000)" stroke="#FFFFFF" stroke-width="2">
                    <path d="M51.9130435,68.8 C51.9130435,68.8 57.6521739,54.4521739 27.6173913,44.5217391 C17.1478261,36.6608696 10.4347826,29.4434783 12.4173913,12.1565217 C5.96521739,20.226087 -3.02608696,29.2869565 1.28695652,50.5913043 C2.36521739,58.8173913 15.026087,78.9565217 31.6521739,79.9130435 C41.2173913,80.1565217 46.6956522,77.4608696 48.8695652,74.8521739 C51.9652174,75.0434783 63.0434783,74.8521739 63.0434783,74.8521739 L63.0434783,71.826087 C63.0434783,71.826087 29.4434783,76.0347826 15.4608696,51.6 C20.9391304,56.8347826 31.5130435,67.6869565 51.9130435,68.8 Z" id="形状_1" fill="#093693"></path>
                    <path d="M28.5913043,11.1478261 C28.5913043,11.1478261 22.8521739,25.4956522 52.8347826,35.426087 C60.9565217,41.2695652 69.9826087,50.5043478 67.9826087,67.7913043 C74.4173913,59.7217391 83.4086957,50.6608696 79.0956522,29.3565217 C78.0347826,21.1130435 65.3913043,0.991304348 48.8,0.0173913043 C39.2521739,-0.226086957 33.7913043,2.46956522 31.6173913,5.07826087 C28.5391304,4.88695652 17.4782609,5.07826087 17.4782609,5.07826087 L17.4782609,8.10434783 C17.4782609,8.10434783 51.0086957,3.89565217 64.973913,28.3304348 C59.4956522,23.1130435 48.9391304,12.2434783 28.5913043,11.1478261 Z" id="形状_1_拷贝" fill="#03A069"></path>
                </g>
                <g id="Group-5" transform="translate(95.000000, 17.000000)">
                    <g id="Group-3">
                        <g id="上饶市创新创业产业孵化中心">
                            <use fill="#000000" xlink:href="#path-1"></use>
                            <use fill="#FFFFFF" xlink:href="#path-1"></use>
                        </g>
                        <g id="Shangrao-innovation">
                            <use fill="#000000" xlink:href="#path-2"></use>
                            <use fill="#FFFFFF" xlink:href="#path-2"></use>
                        </g>
                    </g>
                </g>
            </g>
        </g>
    </g>
</svg>